<svg xmlns="http://www.w3.org/2000/svg" xmlns:xlink="http://www.w3.org/1999/xlink" viewBox="0 0 472.35 314.16"><defs><style>.cls-1{fill:#fff;}.cls-2{fill:url(#linear-gradient);}</style><linearGradient id="linear-gradient" x1="145.44" y1="261.46" x2="382.03" y2="24.86" gradientUnits="userSpaceOnUse"><stop offset="0.2" stop-color="#10b0e6"/><stop offset="0.8" stop-color="#da6eaa"/></linearGradient></defs><title>GaiaNinja_Hor_Couleur</title><g id="Layer_5" data-name="Layer 5"><rect class="cls-1" width="472.35" height="314.16"/></g><g id="Layer_6" data-name="Layer 6"><path class="cls-2" d="M116.46,179.51a40.83,40.83,0,0,1-81.66,0V134.93A40.88,40.88,0,0,1,75.63,94.1a40.45,40.45,0,0,1,32,15.58,8,8,0,0,1-12.56,9.85,24.58,24.58,0,0,0-19.46-9.47,24.9,24.9,0,0,0-24.87,24.87v44.58a24.87,24.87,0,0,0,49.74,0A13.82,13.82,0,0,0,86.69,165.7H75.63a8,8,0,1,1,0-16H86.69A29.81,29.81,0,0,1,116.46,179.51ZM423.72,94.1A41.09,41.09,0,0,0,387.08,117a8,8,0,1,0,14.33,7,24.85,24.85,0,0,1,47.18,10.93v44.58a24.87,24.87,0,1,1-49.74,0,13.82,13.82,0,0,1,13.81-13.81h11.06a8,8,0,1,0,0-16H412.66a29.81,29.81,0,0,0-29.77,29.77,40.83,40.83,0,0,0,81.66,0V134.93A40.88,40.88,0,0,0,423.72,94.1ZM336.41,82.51c5.58,8.56,19,.09,13.18-8.71A152.1,152.1,0,0,0,259,10c-36.21-8.9-73-4.25-103.53,13.11a2,2,0,0,0-.85,2.51l.47,1.1a2,2,0,0,0,2.61,1.06C222.87.57,298,23.57,336.41,82.51Zm12.09,22.66a146,146,0,0,1-76.71,191.44,2,2,0,0,0-1,2.61l.47,1.1a2,2,0,0,0,2.4,1.13c37.77-11.15,69.58-39.1,87.28-76.69a154,154,0,0,0,2.25-125.9C359,89.21,344.36,95.47,348.5,105.17ZM192.32,135.5v.25a8,8,0,0,0,16,0v-.05c0-22.3-17.56-41.06-39.85-41.59a40.88,40.88,0,0,0-41.82,40.82v77.15a8.17,8.17,0,0,0,7.43,8.24,8,8,0,0,0,8.53-8V134.93A24.9,24.9,0,0,1,167,110.07C180.94,109.83,192.32,121.58,192.32,135.5Zm0,26.89v49.69a8.17,8.17,0,0,0,7.43,8.24,8,8,0,0,0,8.53-8v-50a8,8,0,0,0-16,0Zm64.83,0v49.69a8.17,8.17,0,0,0,7.43,8.24,8,8,0,0,0,8.53-8v-50a8,8,0,0,0-16,0ZM233.26,94.12a8,8,0,0,0-8.53,8v110a8.17,8.17,0,0,0,7.43,8.24,8,8,0,0,0,8.53-8v-110A8.17,8.17,0,0,0,233.26,94.12Zm63.73,0c-22.29.53-39.85,19.29-39.85,41.59v.05a8,8,0,0,0,16,0v-.25c0-13.91,11.39-25.67,25.3-25.43a24.9,24.9,0,0,1,24.44,24.87v77.15a8.17,8.17,0,0,0,7.43,8.24,8,8,0,0,0,8.53-8V134.93A40.88,40.88,0,0,0,297,94.11Z"/></g></svg>